<svg width="28" height="26" viewBox="0 0 28 26" fill="none" xmlns="http://www.w3.org/2000/svg">
<path d="M1 5.25C0.4375 5.25 0 4.8125 0 4.25V1.75C0 1.25 0.4375 0.75 1 0.75H27C27.5 0.75 28 1.25 28 1.75V4.25C28 4.8125 27.5 5.25 27 5.25H1ZM1 15.25C0.4375 15.25 0 14.8125 0 14.25V11.75C0 11.25 0.4375 10.75 1 10.75H27C27.5 10.75 28 11.25 28 11.75V14.25C28 14.8125 27.5 15.25 27 15.25H1ZM1 25.25C0.4375 25.25 0 24.8125 0 24.25V21.75C0 21.25 0.4375 20.75 1 20.75H27C27.5 20.75 28 21.25 28 21.75V24.25C28 24.8125 27.5 25.25 27 25.25H1Z" fill="#156CAB"/>
</svg>
